<svg width="120" height="40" viewBox="0 0 120 40" fill="none" xmlns="http://www.w3.org/2000/svg">
<path d="M67.7647 23.4274C67.7217 22.7763 67.7465 22.1005 67.6163 21.452C67.4613 20.6707 66.861 20.3022 66.1071 20.1629C65.3258 20.0183 64.577 20.1928 63.827 20.3777C63.4585 20.4689 63.0951 20.5783 62.7227 20.6525C61.9532 20.8074 61.5886 20.5887 61.3411 19.8425C61.2422 19.5443 61.1536 19.2422 61.0625 18.9414C60.8216 18.1601 61.0521 17.5976 61.8438 17.3463C62.7184 17.0617 63.6116 16.8381 64.5171 16.677C65.823 16.4348 67.165 16.4676 68.4575 16.7733C70.438 17.2656 71.6373 18.6315 71.8704 20.6759C71.9201 21.0956 71.9458 21.5177 71.9473 21.9403C71.9551 24.5108 71.9551 27.0817 71.9473 29.653C71.9473 30.7091 71.4264 31.2221 70.3625 31.2247C70.1568 31.2247 69.951 31.2247 69.744 31.2247C68.753 31.2247 68.3976 30.9565 68.1228 29.9629C68.0329 30.0463 67.96 30.1114 67.8884 30.1804C66.4026 31.5998 63.435 31.937 61.6784 30.8823C60.4778 30.1622 59.9569 29.041 59.914 27.6998C59.8895 27.0619 59.9615 26.4241 60.1275 25.8077C60.5312 24.3636 61.6081 23.6175 63.0118 23.2933C64.3713 22.9807 65.7281 23.0966 67.0798 23.3584C67.2608 23.3935 67.4405 23.43 67.6215 23.4638C67.6462 23.4678 67.667 23.4534 67.7647 23.4274ZM67.7282 26.5409C67.7217 25.9913 67.7933 26.0734 67.2621 25.964C66.5172 25.8103 65.762 25.7036 65.0093 25.8898C64.4429 26.0291 64.1551 26.4849 64.1812 27.1242C64.2059 27.7375 64.5041 28.1269 65.0731 28.235C66.055 28.4212 66.8363 28.0475 67.447 27.2987C67.6124 27.0956 67.7282 26.9198 67.7282 26.5409Z" fill="white"/>
<path d="M20.1446 31.2234C19.8633 31.2234 19.5794 31.2377 19.2995 31.2234C18.539 31.1765 17.9973 30.8002 17.759 30.0762C17.479 29.2337 17.2381 28.3834 16.9946 27.5227C16.9373 27.3182 16.8644 27.2453 16.6378 27.2779C15.0683 27.5116 13.4727 27.5116 11.9032 27.2779C11.6753 27.244 11.5985 27.3286 11.5464 27.5266C11.3459 28.2623 11.1414 29.0097 10.9292 29.7429C10.6153 30.8119 10.071 31.2234 8.9655 31.2234C8.56314 31.2234 8.16207 31.2234 7.761 31.2234C6.50702 31.2091 6.00048 30.5124 6.38853 29.3262C7.06739 27.2557 7.74972 25.1866 8.43552 23.1188L11.6401 13.4255C11.6883 13.2809 11.7378 13.1377 11.7925 12.9971C12.0646 12.3095 12.5595 11.8863 13.303 11.842C13.9201 11.8036 14.5389 11.8036 15.156 11.842C15.8995 11.8889 16.4139 12.303 16.6587 13.0023C17.1144 14.3044 17.5468 15.6066 17.9856 16.9087C19.3572 20.9889 20.7262 25.069 22.0926 29.1491C22.1724 29.3734 22.23 29.605 22.2645 29.8405C22.353 30.532 21.9962 31.0398 21.3113 31.1622C20.9247 31.2121 20.5356 31.2403 20.1459 31.2469L20.1446 31.2234ZM14.2848 17.19L14.1898 17.1822C13.5882 19.4089 12.9866 21.6356 12.3785 23.8818C13.5952 24.1365 14.8518 24.1338 16.0675 23.874C15.4711 21.6161 14.8812 19.3998 14.29 17.1848L14.2848 17.19Z" fill="white"/>
<path d="M42.7878 17.9114C43.4076 17.5546 43.9728 17.1301 44.6043 16.8827C45.8172 16.3971 47.1674 16.3799 48.3923 16.8345C49.6437 17.2734 50.4094 18.2135 50.7596 19.4571C50.9719 20.1736 51.0948 20.9137 51.1255 21.6603C51.1698 23.361 51.1959 25.0694 51.0904 26.7648C50.9784 28.5878 50.2127 30.0892 48.4861 30.9396C47.5697 31.3784 46.5533 31.5663 45.5406 31.4839C44.7892 31.4344 44.0457 31.2599 43.2983 31.1414C43.2266 31.1297 43.1576 31.1101 43.0378 31.0841V31.4604C43.0378 32.2625 43.0482 33.066 43.0313 33.8681C43.0118 34.7432 42.5378 35.2836 41.6693 35.3565C41.1183 35.4001 40.5644 35.3896 40.0155 35.3252C39.3644 35.251 38.9477 34.7887 38.8592 34.1416C38.8313 33.9257 38.8178 33.7082 38.8188 33.4905C38.8188 28.511 38.8188 23.532 38.8188 18.5534C38.8179 18.3693 38.8288 18.1853 38.8514 18.0026C38.9295 17.3684 39.2798 16.9322 39.91 16.8567C40.4802 16.795 41.0556 16.7985 41.625 16.8671C42.2526 16.9439 42.5964 17.401 42.7878 17.9114ZM43.0482 24.2699C43.0482 25.2452 43.0482 26.2231 43.0482 27.1958C43.0364 27.2751 43.0529 27.356 43.0949 27.4244C43.1368 27.4927 43.2014 27.5441 43.2774 27.5696C43.9064 27.8447 44.5959 27.9524 45.2788 27.8821C46.176 27.7844 46.6735 27.3274 46.8584 26.4497C46.9086 26.2278 46.9356 26.0013 46.9391 25.7739C46.9482 24.5811 46.9534 23.3883 46.9391 22.1968C46.9324 21.8826 46.8833 21.5708 46.7933 21.2697C46.6044 20.6186 46.1786 20.2149 45.4833 20.1303C44.5978 20.0235 43.8621 20.3308 43.2579 20.9585C43.1391 21.0902 43.0701 21.2592 43.0626 21.4364C43.0339 22.383 43.043 23.3258 43.043 24.2699H43.0482Z" fill="white"/>
<path d="M27.9966 17.9413C28.5031 17.6158 28.9485 17.2577 29.4511 17.022C30.8093 16.3827 32.2247 16.3488 33.6311 16.8462C34.8186 17.2655 35.557 18.1627 35.9216 19.3399C36.133 19.9665 36.26 20.6186 36.2992 21.2788C36.3539 23.0341 36.3565 24.7946 36.3161 26.5499C36.307 27.6454 35.954 28.7104 35.3069 29.5944C34.3785 30.8523 33.0659 31.3536 31.5645 31.4838C30.5344 31.567 29.4978 31.4566 28.5084 31.1583C28.438 31.1362 28.3651 31.1218 28.2479 31.0919V31.7573C28.2479 32.4188 28.2557 33.0816 28.2479 33.7431C28.2297 34.8343 27.6815 35.3799 26.5903 35.3929C26.1676 35.4099 25.7443 35.3981 25.3233 35.3578C24.5498 35.2627 24.1083 34.7731 24.038 33.9957C24.0237 33.8342 24.0276 33.6702 24.0276 33.5074V18.5586C24.0276 18.4075 24.0276 18.2539 24.0367 18.1041C24.0953 17.4166 24.4821 16.9322 25.1514 16.854C25.6896 16.7928 26.233 16.7928 26.7713 16.854C27.4119 16.927 27.7922 17.3723 27.9966 17.9413ZM28.2453 24.2829C28.2453 25.2374 28.2544 26.1931 28.2453 27.1476C28.2453 27.3976 28.326 27.5383 28.5578 27.5969C28.9771 27.6984 29.3951 27.8508 29.8209 27.8807C31.351 27.9862 32.045 27.369 32.1192 25.8364C32.1596 25.0134 32.1414 24.1878 32.1375 23.3622C32.1375 22.831 32.144 22.2971 32.0932 21.7697C31.9786 20.5535 31.196 19.9636 29.9876 20.1368C29.3913 20.2221 28.8443 20.5155 28.4432 20.965C28.333 21.0906 28.2687 21.2499 28.2609 21.4168C28.2375 22.3778 28.2479 23.3323 28.2479 24.2881L28.2453 24.2829Z" fill="white"/>
<path d="M82.7095 30.0723C82.0889 30.5936 81.3741 30.9914 80.604 31.2442C79.5351 31.601 78.3805 31.6087 77.3069 31.2664C76.0216 30.8757 75.2846 29.9225 75.0242 28.662C74.8288 27.6959 74.722 26.7139 74.7052 25.7283C74.6609 23.3648 74.6895 20.9988 74.6934 18.6328C74.6915 18.4268 74.7085 18.221 74.7442 18.0182C74.8536 17.4335 75.1791 16.9764 75.7794 16.91C76.4328 16.8226 77.0944 16.8152 77.7496 16.8879C78.4827 16.979 78.8786 17.5207 78.9059 18.2825C78.9268 18.8359 78.915 19.3893 78.915 19.9428C78.915 21.7332 78.915 23.5237 78.915 25.3129C78.915 25.7244 78.9372 26.1384 78.9789 26.5473C79.0921 27.6502 79.6638 28.1099 80.7446 27.8885C81.1721 27.7803 81.5754 27.5925 81.9335 27.3351C82.3345 27.0669 82.5129 26.6684 82.5077 26.1397C82.4804 23.6656 82.4947 21.1915 82.496 18.7174C82.4919 18.5549 82.4975 18.3923 82.5129 18.2304C82.6236 17.3189 83.1275 16.8566 84.0417 16.8241C84.4531 16.8098 84.8659 16.8059 85.2774 16.8306C86.1473 16.8827 86.6681 17.4231 86.7098 18.2929C86.7176 18.4231 86.7163 18.5534 86.7163 18.6836V29.6217C86.7163 30.7338 86.2189 31.2325 85.1094 31.2351C84.8933 31.2351 84.6758 31.2351 84.4584 31.2351C83.6393 31.252 82.996 30.9838 82.7095 30.0723Z" fill="white"/>
<path d="M106.196 25.3728C106.295 25.9106 106.327 26.3911 106.479 26.8364C106.73 27.5943 107.344 27.9198 108.108 27.9654C109.151 28.0298 110.195 27.8718 111.172 27.5018C111.324 27.4436 111.478 27.3944 111.636 27.3547C112.125 27.2336 112.473 27.3547 112.703 27.8026C112.94 28.2535 113.146 28.7194 113.322 29.1972C113.5 29.6868 113.322 30.1517 112.813 30.3978C112.21 30.6914 111.581 30.9294 110.935 31.1088C109.372 31.532 107.776 31.6674 106.174 31.2963C104.004 30.7924 102.463 29.1751 102.175 26.9718C101.928 25.0655 101.924 23.1355 102.162 21.228C102.471 18.7591 104.294 16.9947 106.755 16.6392C107.974 16.4621 109.178 16.4816 110.354 16.8801C112.35 17.5546 113.521 18.9753 113.862 21.0183C114.025 21.9937 114.004 23.0054 113.993 23.999C113.981 24.8519 113.367 25.365 112.449 25.3702C110.725 25.3806 109.001 25.3702 107.276 25.3702L106.196 25.3728ZM109.96 22.6591C109.884 22.1382 109.861 21.685 109.744 21.2527C109.52 20.4298 108.978 20.0573 108.107 20.0547C107.236 20.0521 106.674 20.4454 106.441 21.2697C106.364 21.6177 106.307 21.9699 106.269 22.3244C106.229 22.5744 106.319 22.6708 106.585 22.6643C107.256 22.6486 107.928 22.6643 108.6 22.6643L109.96 22.6591Z" fill="white"/>
<path d="M94.304 31.5515C92.9146 31.476 91.55 31.3341 90.2452 30.834C89.9711 30.732 89.7074 30.6043 89.4574 30.4525C88.9678 30.1439 88.8271 29.7298 89.0381 29.1907C89.2055 28.7668 89.3973 28.3529 89.6123 27.951C89.8519 27.4966 90.227 27.3 90.7244 27.4302C91.3312 27.5864 91.9146 27.8352 92.5201 27.9927C93.3886 28.218 94.2728 28.3039 95.1583 28.0787C95.3445 28.0297 95.5208 27.9486 95.6791 27.8391C96.2937 27.4002 96.2377 26.4809 95.5489 26.1983C95.002 25.977 94.4043 25.8832 93.8274 25.7387C93.218 25.585 92.593 25.4782 92.0044 25.2803C90.1814 24.6579 89.2295 23.3492 89.1566 21.4272C89.0576 18.8099 90.589 16.9673 93.1933 16.6288C95.1075 16.3787 96.98 16.5636 98.7783 17.3033C98.9683 17.3827 99.1476 17.4855 99.3121 17.6093C99.7432 17.9322 99.8721 18.3489 99.6637 18.845C99.4964 19.2452 99.2992 19.6321 99.0738 20.0027C98.773 20.4962 98.4097 20.6251 97.8511 20.4649C97.3211 20.3126 96.8094 20.0743 96.2664 19.9896C95.6162 19.8923 94.9577 19.863 94.3014 19.9024C93.7584 19.9336 93.4615 20.2761 93.4251 20.7084C93.3795 21.2488 93.567 21.5809 94.1413 21.758C94.7923 21.9585 95.4721 22.0614 96.1284 22.245C96.7761 22.4133 97.4106 22.6287 98.0269 22.8895C99.2757 23.4508 99.9997 24.4521 100.208 25.8051C100.416 27.158 100.286 28.4498 99.4267 29.5814C98.6454 30.6062 97.562 31.1205 96.3354 31.3432C95.6687 31.4591 94.9825 31.4838 94.304 31.5515Z" fill="white"/>
<path d="M53.6322 20.8061C53.6322 17.996 53.6322 15.1868 53.6322 12.3785C53.6322 12.1936 53.6322 12.0087 53.6439 11.8251C53.7025 11.036 54.2025 10.5099 54.9916 10.4565C55.4894 10.4233 55.9888 10.4233 56.4865 10.4565C57.2431 10.5073 57.7223 10.9774 57.8173 11.7313C57.8412 11.9358 57.8534 12.1414 57.8538 12.3473C57.8538 17.9978 57.8538 23.6487 57.8538 29.3001C57.8538 30.7507 57.3746 31.2273 55.9149 31.226C55.5895 31.2349 55.264 31.2263 54.9396 31.2C54.1583 31.1101 53.6947 30.6023 53.6374 29.8184C53.6257 29.6452 53.6283 29.472 53.6283 29.2975C53.6309 26.4657 53.6322 23.6353 53.6322 20.8061Z" fill="white"/>
<path d="M6.591 15.0565C6.26479 14.7295 6.26541 14.2 6.59238 13.8738C6.84339 13.6234 7.22505 13.5585 7.54475 13.7118L8.42498 14.134C8.70482 14.2683 8.70437 14.6668 8.42424 14.8004L7.54301 15.2207C7.22296 15.3733 6.84144 15.3075 6.591 15.0565Z" fill="white"/>
<path d="M13.3183 4.18832C13.8975 3.60909 14.8367 3.60911 15.4159 4.18834C15.8606 4.63302 15.9765 5.30979 15.7052 5.87713L14.9582 7.43918C14.7207 7.93577 14.0138 7.93579 13.7762 7.43922L13.0291 5.87713C12.7577 5.30981 12.8736 4.63302 13.3183 4.18832Z" fill="white"/>
<path d="M7.43274 8.78273C7.43274 8.18317 7.91878 7.69711 8.51834 7.69711C8.97861 7.69711 9.38885 7.98737 9.54204 8.4214L9.96385 9.61654C10.0979 9.99646 9.73208 10.3623 9.35216 10.2283L8.15709 9.8065C7.72302 9.65332 7.43274 9.24303 7.43274 8.78273Z" fill="white"/>
<path d="M21.2356 8.78273C21.2356 8.18317 20.7496 7.69711 20.15 7.69711C19.6897 7.69711 19.2795 7.98737 19.1263 8.4214L18.7045 9.61654C18.5704 9.99646 18.9363 10.3623 19.3162 10.2283L20.5113 9.8065C20.9453 9.65332 21.2356 9.24303 21.2356 8.78273Z" fill="white"/>
<path d="M22.073 15.0565C22.3993 14.7295 22.3986 14.2 22.0717 13.8738C21.8207 13.6234 21.439 13.5585 21.1193 13.7118L20.2391 14.134C19.9592 14.2683 19.9597 14.6668 20.2398 14.8004L21.121 15.2207C21.4411 15.3733 21.8226 15.3075 22.073 15.0565Z" fill="white"/>
</svg>
